<svg xmlns="http://www.w3.org/2000/svg" viewBox="0 0 400 260" width="400" height="260">
  <defs>
    <linearGradient id="bg" x1="0" y1="0" x2="1" y2="1">
      <stop offset="0%" stop-color="#3B82F6"/>
      <stop offset="100%" stop-color="#DBEAFE"/>
    </linearGradient>
  </defs>
  <rect width="400" height="260" rx="16" fill="url(#bg)"/>
  <g transform="translate(152, 82) scale(3.2)" stroke="#3B82F6" stroke-width="1.5" fill="none" stroke-linecap="round" stroke-linejoin="round">
    <path d="M6.5 6.5 17.5 17.5"/><path d="M3 10a2 2 0 0 1 2-2h1"/><path d="M18 8a2 2 0 0 1 2 2v1"/><path d="M10 21a2 2 0 0 1-2-2v-1"/><path d="M17 15a2 2 0 0 1-2-2v-1"/><path d="M21 14a2 2 0 0 1-2 2h-1"/><path d="M12 5a2 2 0 0 1 2-2h1"/><path d="M3 14a2 2 0 0 1 2-2h1"/>
  </g>
  <text x="200" y="232" text-anchor="middle" font-family="Inter, sans-serif" font-size="22" font-weight="700" fill="#3B82F6" opacity="0.85">Спорт</text>
</svg>